HIERARCHY
ROOT Hips
{
    OFFSET 13.274211883544922 94.21359634399414 -18.404373168945312
    CHANNELS 6 Xposition Yposition Zposition Zrotation Xrotation Yrotation
    JOINT RightUpLeg
    {
        OFFSET -13.274211883544922 0.0 0.0
        CHANNELS 3 Zrotation Xrotation Yrotation
        JOINT RightLeg
        {
            OFFSET 0.0 -48.20266342163086 0.0
            CHANNELS 3 Zrotation Xrotation Yrotation
            JOINT RightFoot
            {
                OFFSET 0.0 -46.01093292236328 0.0
                CHANNELS 3 Zrotation Xrotation Yrotation
                End Site
                {
                    OFFSET 0.0 0.0 18.404373168945312
                }
            }
        }
    }
    JOINT LeftUpLeg
    {
        OFFSET 13.274211883544922 0.0 0.0
        CHANNELS 3 Zrotation Xrotation Yrotation
        JOINT LeftLeg
        {
            OFFSET 0.0 -48.20266342163086 0.0
            CHANNELS 3 Zrotation Xrotation Yrotation
            JOINT LeftFoot
            {
                OFFSET 0.0 -46.01093292236328 0.0
                CHANNELS 3 Zrotation Xrotation Yrotation
                End Site
                {
                    OFFSET 0.0 0.0 18.404373168945312
                }
            }
        }
    }
    JOINT Spine
    {
        OFFSET 0.0 24.77996826171875 0.0
        CHANNELS 3 Zrotation Xrotation Yrotation
        JOINT Spine3
        {
            OFFSET 0.0 25.606090545654297 0.0
            CHANNELS 3 Zrotation Xrotation Yrotation
            JOINT Neck
            {
                OFFSET 0.0 11.891084671020508 0.0
                CHANNELS 3 Zrotation Xrotation Yrotation
                End Site
                {
                    OFFSET 0.0 4.756433963775635 0.0
                }
            }
            JOINT LeftArm
            {
                OFFSET 14.002555847167969 0.0 0.0
                CHANNELS 3 Zrotation Xrotation Yrotation
                JOINT LeftForeArm
                {
                    OFFSET 29.176780700683594 0.0 0.0
                    CHANNELS 3 Zrotation Xrotation Yrotation
                    JOINT LeftHand
                    {
                        OFFSET 21.57155990600586 0.0 0.0
                        CHANNELS 3 Zrotation Xrotation Yrotation
                        End Site
                        {
                            OFFSET 8.628623962402344 0.0 0.0
                        }
                    }
                }
            }
            JOINT RightArm
            {
                OFFSET -14.002555847167969 0.0 0.0
                CHANNELS 3 Zrotation Xrotation Yrotation
                JOINT RightForeArm
                {
                    OFFSET -29.176780700683594 0.0 0.0
                    CHANNELS 3 Zrotation Xrotation Yrotation
                    JOINT RightHand
                    {
                        OFFSET -21.57155990600586 0.0 0.0
                        CHANNELS 3 Zrotation Xrotation Yrotation
                        End Site
                        {
                            OFFSET -8.628623962402344 0.0 0.0
                        }
                    }
                }
            }
        }
    }
}
MOTION
Frames: 10
Frame Time: 0.03333333333333333
-0.000263772439211607 95.02224731445312 -0.0007798049482516944 -10.770366543664874 -13.326886923318003 -24.15626733686411 7.401685448527142 25.20514679324691 -3.62506486066967 -2.4693482790690187 5.765998029674554 -0.5214168337233489 3.9756933518293955e-16 -1.2069275033730902e-33 -3.478731682850721e-16 6.971737698359506 24.08593535660435 -3.300643058036098 0.8195986413279681 5.042368686383668 -0.7224500280100058 7.951386703658792e-16 1.1034765745125397e-32 1.5902773407317584e-15 8.866681623161103 33.0170911065051 -5.450554476447477 -4.3308417594617976e-07 1.327047855265377e-06 -1.1185049232369848 1.0929717381904345 -5.737008358584495 -170.51832871327738 112.20904608199884 -37.44869864532887 -167.84457229956732 6.837690075246787e-06 -3.0753888456073716e-06 27.895512536133324 0.0 0.0 0.0 -118.4612739917855 -36.38789509173119 168.11522379728058 3.8595934159225085e-06 4.3008305988660656e-06 -26.451165795266277 5.565970692561154e-15 0.0 0.0
-0.00024999785819090903 95.02234649658203 -0.0008073251810856164 -10.535779126875664 -13.460477797752093 -23.679497359384904 7.338422578661652 25.08124003817667 -3.608474245013872 -2.510839172595313 6.151782021032404 -0.5525366284534382 7.951386703658792e-16 -1.5902773407317584e-15 -2.882377680076312e-15 7.193258777087323 24.28532697419191 -3.4457866758479523 0.07125853862583066 4.914355433817873 -0.66051018439195 2.2069531490250793e-32 1.5902773407317584e-15 -1.5902773407317584e-15 8.737397725975196 32.96057384421928 -5.405905757831302 -5.03597560327132e-07 1.9704265404652383e-06 -0.9937217678633441 0.9034180197050192 -5.48498589792868 -171.38759667208225 111.58210539205088 -36.712204244687584 -168.69844598220456 -3.744940083332281e-07 4.208702860973642e-06 27.57827798673915 0.0 0.0 6.3611093629270335e-15 -118.40899868591147 -36.44943819690387 168.15198398418707 -1.0512303332001687e-06 2.7170537094494788e-06 -26.49161302934174 3.279947015259251e-15 0.0 0.0
-0.00023887174029368907 95.0224609375 -0.0008455770439468324 -10.211410239871425 -13.684627449866518 -23.391650541124957 7.291404765816403 24.95260824868787 -3.6425027082935206 -3.0782303065438694 6.359604082660817 -0.5207750718439951 0.0 0.0 -5.963540027744093e-16 6.883387878470659 24.371839801187978 -3.3975170904436958 -0.0323404108468158 4.8895773735071115 -0.636520573055689 7.951386703658792e-16 -3.034560579909484e-32 -4.373262687012335e-15 8.32390356602484 33.14131257147594 -5.294461691280333 4.805568537178762e-07 1.0961189109663685e-08 -0.7853704034127831 0.7308544364039015 -5.183871203692943 -172.4211006000938 111.15313005002207 -35.88289856289754 -169.47322536391385 2.4346237906321793e-06 -1.5940228650174446e-06 27.399495774273618 0.0 0.0 6.3611093629270335e-15 -118.06908611321366 -36.209527527600045 168.28631135011474 -1.7595594222795177e-06 3.190383080406423e-06 -26.292953273212945 2.9817700138720476e-15 0.0 0.0
-0.0002652821422088891 95.02251434326172 -0.0008751167333684862 -9.823565137252832 -13.879930930941196 -22.998088582603405 7.061569877512061 24.888930822961967 -3.626585644002433 -3.2700763990903727 6.254443468339871 -0.4899532102671493 -3.975693351829397e-16 1.5902773407317588e-15 1.093315671753084e-15 6.317410407671374 24.372404619599838 -3.249840093472433 0.019631293353354926 5.220869925026248 -0.6546918159353325 7.951386703658792e-16 1.5902773407317584e-15 3.975693351829396e-16 8.271826823270798 33.19478823621679 -5.392061081482704 2.1087923363684467e-08 2.540938258084142e-07 -0.7320509846164567 -0.1491530814558794 -5.244530445127307 -173.1381156840548 110.33250998459155 -34.65130201792212 -170.03841131536902 -2.210162818406532e-06 -2.788387778079752e-06 26.64580144888662 -6.3611093629270335e-15 3.531125038440127e-31 -6.3611093629270335e-15 -117.50840068627853 -35.59083990393063 168.58805822856021 2.240431477200515e-06 1.2550800044384922e-06 -26.092037414569912 4.969616689786745e-15 0.0 0.0
-0.00023730813700240105 95.02257537841797 -0.0008944252622313797 -9.430204820784898 -14.099214245867431 -22.551409080423955 6.91477395512897 24.99625751543135 -3.646065808007205 -3.5489217003039686 6.101404623464376 -0.4485884954214565 -3.975693351829395e-16 1.1207183959892981e-32 -3.2302508483613835e-15 5.996917667657638 24.240382939182894 -3.16599554765806 -0.28526426835536917 5.617292790174592 -0.6600923925227631 -8.793328953146801e-33 1.6896696745274934e-15 5.963540027744094e-16 8.044191779586486 33.20703025155591 -5.355218378630256 -1.876723791094357e-07 1.8669507522870323e-06 -0.6011706664788904 -0.7102568520557773 -5.223296330886116 -173.50425300434952 110.31858981513496 -34.3078988975314 -170.0562180311955 1.415752093435163e-06 -6.648711162020929e-06 26.181202280505026 0.0 0.0 6.3611093629270335e-15 -117.37891810482978 -35.57406843827043 168.4201767109542 -7.158736399369043e-07 3.438631008039908e-06 -25.946023753619926 -2.782985346280577e-15 1.5902773407317584e-15 3.862168010793889e-32
-0.00020272300753276795 95.02252960205078 -0.0008601500885561109 -9.026973254530693 -14.211759622924912 -22.01724042537471 6.664686226021938 24.945923474170804 -3.6431515696642647 -3.5511736111968015 6.0467938079071715 -0.44557667774554216 3.975693351829396e-16 4.969616689786745e-17 1.4908850069360234e-15 5.943030604014379 24.04577160659444 -3.2270466551773804 -0.784022916237232 5.817855795562523 -0.6526609722221807 6.896728590703373e-33 1.5902773407317584e-15 -4.969616689786745e-16 8.094145137510486 33.156458102208376 -5.52066369863872 -9.83825137047556e-07 4.704969875156272e-07 -0.393228211807852 -1.0342720898495297 -5.414070687287815 -172.58469006799342 110.63463034183104 -34.580127506324445 -169.83577902778526 7.148629136260878e-07 -3.6420457351874298e-06 26.056943108023553 -6.3611093629270335e-15 -6.3611093629270335e-15 -3.531125038440127e-31 -117.50044144544171 -35.54295533671399 168.24639705092454 -3.9168840168100195e-06 4.102326902411126e-06 -26.11896782635024 1.3914926731402886e-15 0.0 0.0
-0.0001758408034220338 95.02256774902344 -0.0008637087303213775 -8.620831470204864 -14.367102866397644 -21.4119791216264 6.321728355386741 24.95780289548377 -3.5865862519170064 -3.4267332810003115 5.886458903566898 -0.4339323473317321 -3.9756933518293955e-16 4.969616689786744e-17 1.0933156717530838e-15 5.771093861130879 24.094612167437457 -3.248136770275737 -1.2353724759344067 5.607900520499914 -0.5875305299760747 -7.951386703658791e-16 -6.896728590703373e-34 9.939233379573489e-17 7.8790244462996695 33.185717508916895 -5.520824162611364 3.0116318866586435e-07 -6.337424751651228e-07 -0.4538023456304351 -1.0784830827685223 -5.721050156851489 -172.73660636962958 111.21079172321167 -35.37879222886642 -169.65760655108804 1.1460468104920966e-06 1.5930626364279797e-06 26.316619877792963 -6.3611093629270335e-15 0.0 0.0 -117.51236871313287 -35.523882758973315 167.99966747186872 -1.8369355372975785e-06 2.6053798073094836e-07 -26.154005592210165 -9.14409470920761e-15 0.0 0.0
-0.00014777251635678113 95.02256774902344 -0.0008574767271056771 -8.207534690390323 -14.544932364840095 -21.029314428526895 5.867327521909733 24.991774801057183 -3.526716056857325 -3.3520712353468314 5.883534430455787 -0.42722963790112306 7.951386703658791e-16 -5.862219302097867e-33 -8.448348372637465e-16 5.3086797381168465 24.288566667192576 -3.2067533685672793 -1.175287352308577 5.171157886153053 -0.5332853711868756 2.1379858631180455e-32 1.5902773407317582e-15 -1.5405811738338907e-15 7.621787642145538 33.31505115666673 -5.566324665122129 -1.9825218993954733e-07 -4.866886371199176e-07 -0.43432141184732903 -1.1049065663749753 -6.244821083616519 -171.98418322649516 111.37219120288646 -35.42907678233905 -169.50757167796542 -1.161300411386409e-06 -6.413548164046036e-06 26.357712150673194 0.0 0.0 6.3611093629270335e-15 -117.4294896636661 -35.863847102475496 167.7619216380622 7.938264884693175e-07 3.0222951982506112e-06 -26.386009005569264 7.553817368475852e-15 2.0966054915738252e-31 3.1805546814635168e-15
-0.00011111565254395828 95.02262115478516 -0.0008525670855306089 -7.743157228782832 -14.682542063039312 -20.386944120319065 5.485175936366576 25.002669875124358 -3.4533641174407 -3.359641681857531 6.094289938823755 -0.4248072404630833 0.0 0.0 -1.2424041724466863e-15 5.038600060437678 24.060376074432316 -3.153044175013166 -1.2439540889434135 5.647014010698599 -0.571076667266806 3.975693351829397e-16 -9.939233379573495e-17 -3.975693351829397e-15 7.552380031159947 33.35347663928671 -5.650081508443951 2.8367389661281886e-07 -4.614950675563976e-07 -0.4807524558809181 -1.28098415883983 -6.720064457978525 -172.38479068435532 111.28660723323968 -35.26686790307152 -169.4497024316499 -1.6171811955361271e-07 7.358680954910702e-07 26.27241740315377 3.1805546814635164e-15 1.7655625192200634e-31 6.361109362927033e-15 -118.09628730902865 -37.2483386092012 167.22292584946018 -4.986116394834444e-07 -2.935228699924836e-06 -26.920324328951164 4.572047354603806e-15 1.2689980606894205e-31 3.1805546814635176e-15
-0.0001193216594401747 95.0226058959961 -0.0008385222754441202 -7.4484320162298365 -14.909246981296965 -19.900075877943515 5.345368337977142 25.189571515686715 -3.417163360281735 -3.767597227980717 6.381871549576652 -0.38392150337488345 -3.975693351829396e-16 -2.3276458993623882e-33 6.708982531212105e-16 5.1180240576192215 24.362558500665916 -3.223608556102489 -1.7839001878204235 5.541783617622984 -0.5132857617702481 3.975693351829396e-16 1.4908850069360234e-15 -3.3793393490549868e-15 7.441132476798163 33.293339412277746 -5.5789521488176685 -2.203099571487152e-07 -1.0830780016528265e-06 -0.39519952194735986 -1.2501849466481472 -7.1003568906135515 -172.97804948069503 110.61357453595419 -33.817909101320026 -169.45194329664417 -1.406839238665831e-07 -4.600128883463835e-07 26.11072276660341 -6.3611093629270335e-15 0.0 0.0 -118.54138733206955 -37.8664741858754 166.7047398812634 3.1555357681376562e-06 1.9505727747338936e-06 -27.685972599032237 -3.975693351829396e-16 0.0 0.0
